<?xml version="1.0" encoding="utf-8"?>
<!-- Generator: Adobe Illustrator 16.0.0, SVG Export Plug-In . SVG Version: 6.00 Build 0)  -->
<!DOCTYPE svg PUBLIC "-//W3C//DTD SVG 1.1//EN" "http://www.w3.org/Graphics/SVG/1.1/DTD/svg11.dtd">
<svg version="1.1" id="Layer_1" xmlns="http://www.w3.org/2000/svg" xmlns:xlink="http://www.w3.org/1999/xlink" x="0px" y="0px"
	 width="29px" height="29px" viewBox="0 0 29 29" enable-background="new 0 0 29 29" xml:space="preserve">
<path id="White_2_" fill="#FFFFFF" d="M27.4,0h-25.8C0.717,0,0,0.717,0,1.601v25.8C0,28.283,0.717,29,1.601,29h13.889V17.77H11.71
	v-4.376h3.779v-3.228c0-3.746,2.288-5.786,5.63-5.786c1.601,0,2.977,0.119,3.377,0.173v3.914l-2.318,0.001
	c-1.816,0-2.168,0.864-2.168,2.131v2.795h4.334l-0.564,4.376h-3.77V29H27.4c0.883,0,1.6-0.717,1.6-1.6v-25.8
	C29,0.717,28.283,0,27.4,0z"/>
</svg>
